<svg width="252" height="54" viewBox="0 0 252 54" fill="none" xmlns="http://www.w3.org/2000/svg">
<path d="M22.2115 7.0833V23.0369H23.9918C25.3612 23.0369 26.5708 22.7402 27.6207 22.1468C28.7162 21.5078 29.6292 20.7089 30.3595 19.7504C31.1355 18.7461 31.7061 17.6278 32.0713 16.3953C32.4821 15.1172 32.6875 13.8619 32.6875 12.6294C32.6875 11.5339 32.5049 10.4384 32.1398 9.34283C31.8202 8.20165 31.2268 7.17459 30.3595 6.26165C29.4922 5.30306 28.2826 4.54989 26.7306 4.00212C25.1786 3.40871 23.2158 3.112 20.8421 3.112C18.6967 3.112 16.7111 3.43153 14.8852 4.07059C13.1049 4.70965 11.5529 5.64541 10.2292 6.87788C8.90541 8.06471 7.85553 9.52541 7.07953 11.26C6.34918 12.9946 5.984 14.9574 5.984 17.1485C5.984 18.7461 6.07529 20.0471 6.25788 21.0513C6.44047 22.0099 6.64588 22.7631 6.87412 23.3108C7.148 23.8586 7.39906 24.2694 7.62729 24.5433C7.90118 24.7715 8.10659 24.9541 8.24353 25.0911C7.28494 25.0911 6.32635 24.9541 5.36776 24.6802C4.40918 24.3607 3.54188 23.8814 2.76588 23.2424C1.98988 22.6033 1.35082 21.7588 0.848706 20.7089C0.392235 19.6134 0.164 18.3125 0.164 16.8061C0.164 14.6607 0.711765 12.6294 1.80729 10.7122C2.90282 8.74941 4.40918 7.03765 6.32635 5.57694C8.24353 4.07059 10.4802 2.88377 13.0365 2.01647C15.5927 1.10353 18.3087 0.64706 21.1845 0.64706C23.9233 0.64706 26.3654 0.920943 28.5108 1.46871C30.7019 2.01647 32.5506 2.79247 34.0569 3.79671C35.5633 4.80094 36.7045 6.01059 37.4805 7.42565C38.3021 8.79506 38.7129 10.3014 38.7129 11.9447C38.7129 12.9033 38.576 13.8847 38.3021 14.8889C38.0282 15.8932 37.6174 16.8974 37.0696 17.9016C36.5675 18.9059 35.9285 19.8416 35.1525 20.7089C34.3765 21.5762 33.4635 22.3522 32.4136 23.0369C34.1026 23.3108 35.4492 23.7901 36.4534 24.4748C37.5033 25.1595 38.3021 26.004 38.8499 27.0082C39.3976 27.9668 39.74 29.0852 39.8769 30.3633C40.0595 31.5958 40.1508 32.8967 40.1508 34.2661C40.1508 35.0878 40.128 35.9779 40.0824 36.9365C40.0367 37.8951 39.9911 38.8536 39.9454 39.8122C39.9454 40.7252 39.9226 41.6153 39.8769 42.4826C39.8313 43.3499 39.8085 44.1259 39.8085 44.8106C39.8085 46.8647 40.1736 48.4852 40.904 49.672C41.68 50.8588 42.6158 51.6348 43.7113 52C42.3419 52.4108 41.2235 52.7075 40.3562 52.8901C39.4889 53.0727 38.6445 53.164 37.8228 53.164C35.7687 53.164 34.2395 52.5021 33.2353 51.1784C32.2767 49.8546 31.7974 48.1656 31.7974 46.1115C31.7974 45.2442 31.8202 44.2628 31.8659 43.1673C31.9572 42.0718 32.0485 40.9762 32.1398 39.8807C32.2767 38.7395 32.368 37.644 32.4136 36.5941C32.5049 35.4986 32.5506 34.5172 32.5506 33.6499C32.5506 32.0979 32.368 30.7969 32.0028 29.7471C31.6833 28.6515 31.2268 27.8071 30.6334 27.2136C30.0856 26.5746 29.4009 26.1181 28.5793 25.8442C27.8033 25.5704 26.9588 25.4334 26.0459 25.4334C25.5438 25.4334 24.9047 25.4791 24.1287 25.5704C23.3984 25.6616 22.7593 25.7758 22.2115 25.9127V52H14.8167V8.11036L22.2115 7.0833ZM71.6805 17.7647V41.0447C71.6805 41.5012 71.7033 42.0718 71.7489 42.7565C71.7946 43.4412 71.9087 44.1259 72.0913 44.8106C72.3195 45.4496 72.639 46.0202 73.0499 46.5224C73.4607 46.9788 74.0313 47.2071 74.7616 47.2071C76.9983 47.2071 78.6416 44.7193 79.6915 39.7438H82.2249C81.7228 42.6195 81.0837 44.9019 80.3077 46.5908C79.5317 48.2341 78.7101 49.4894 77.8428 50.3567C76.9755 51.224 76.0854 51.7718 75.1725 52C74.2595 52.2739 73.4379 52.4108 72.7075 52.4108C71.6576 52.4108 70.7447 52.2282 69.9687 51.8631C69.2383 51.4979 68.5993 51.0186 68.0515 50.4252C67.5494 49.8318 67.1386 49.1471 66.819 48.3711C66.4995 47.5951 66.2485 46.7734 66.0659 45.9061C65.3812 47.6864 64.2628 49.2155 62.7108 50.4936C61.2045 51.7718 59.3557 52.4108 57.1647 52.4108C55.7953 52.4108 54.403 52.1369 52.988 51.5892C51.6186 51.0414 50.3633 50.1513 49.2221 48.9188C48.1266 47.6407 47.2136 46.0202 46.4833 44.0574C45.7986 42.0489 45.4562 39.6068 45.4562 36.7311C45.4562 34.6313 45.6845 32.4402 46.1409 30.1579C46.643 27.8755 47.419 25.7986 48.4689 23.9271C49.5188 22.0555 50.8654 20.5035 52.5087 19.2711C54.152 18.0386 56.1376 17.4224 58.4656 17.4224C59.0134 17.4224 59.584 17.4908 60.1774 17.6278C60.8165 17.7191 61.4099 17.9017 61.9576 18.1755C62.551 18.4494 63.0988 18.8374 63.6009 19.3395C64.103 19.796 64.5139 20.3666 64.8334 21.0513V17.7647H71.6805ZM58.8765 47.2071C59.5612 47.2071 60.2459 47.0245 60.9306 46.6593C61.6609 46.2485 62.3 45.7235 62.8477 45.0845C63.4412 44.3998 63.9205 43.6009 64.2856 42.688C64.6508 41.7751 64.8334 40.7936 64.8334 39.7438V24.1325C64.5139 23.4021 64.0117 22.7402 63.327 22.1468C62.688 21.5078 61.8435 21.1882 60.7936 21.1882C59.3329 21.1882 58.0776 21.6904 57.0277 22.6946C55.9779 23.6532 55.1334 24.8856 54.4943 26.392C53.8553 27.8527 53.376 29.4732 53.0565 31.2534C52.7826 32.988 52.6456 34.6541 52.6456 36.2518C52.6456 40.1774 53.1706 42.9847 54.2205 44.6736C55.316 46.3626 56.868 47.2071 58.8765 47.2071ZM86.4942 17.7647V41.0447C86.4942 43.2814 86.8822 44.8791 87.6582 45.8376C88.4342 46.7506 89.4156 47.2071 90.6024 47.2071C91.2415 47.2071 91.8805 47.0473 92.5196 46.7278C93.1586 46.3626 93.7292 45.8605 94.2313 45.2214C94.7335 44.5824 95.1443 43.8064 95.4638 42.8934C95.7833 41.9805 95.9431 40.9306 95.9431 39.7438V17.7647H102.79V41.0447C102.79 41.8207 102.836 42.5739 102.927 43.3042C103.018 44.0346 103.201 44.6965 103.475 45.2899C103.794 45.8376 104.205 46.2941 104.707 46.6593C105.255 47.0245 105.94 47.2071 106.761 47.2071C108.177 47.2071 109.363 46.7049 110.322 45.7007C111.281 44.6508 112.057 43.3042 112.65 41.6609C113.289 40.0176 113.745 38.1918 114.019 36.1833C114.293 34.1292 114.43 32.0979 114.43 30.0894C114.43 28.8113 114.385 27.556 114.293 26.3235C114.202 25.0454 114.042 23.9042 113.814 22.9C113.586 23.1282 113.289 23.288 112.924 23.3793C112.559 23.4249 112.262 23.4478 112.034 23.4478C110.938 23.4478 110.117 23.0598 109.569 22.2838C109.021 21.5078 108.747 20.6861 108.747 19.8188C108.747 18.9059 109.044 18.1071 109.637 17.4224C110.231 16.692 111.098 16.3268 112.239 16.3268C113.015 16.3268 113.745 16.5551 114.43 17.0115C115.161 17.468 115.777 18.1984 116.279 19.2026C116.827 20.1612 117.237 21.4393 117.511 23.0369C117.831 24.6346 117.991 26.5974 117.991 28.9254C117.991 31.5273 117.762 34.2205 117.306 37.0049C116.895 39.7438 116.188 42.2544 115.183 44.5367C114.179 46.8191 112.878 48.7134 111.281 50.2198C109.683 51.6805 107.697 52.4108 105.324 52.4108C103.543 52.4108 101.854 51.9544 100.257 51.0414C98.6591 50.1285 97.4723 48.8047 96.6963 47.0701C95.7833 48.9416 94.665 50.3111 93.3412 51.1784C92.0631 52 90.7165 52.4108 89.3015 52.4108C87.9777 52.4108 86.7224 52.2282 85.5356 51.8631C84.3488 51.4979 83.3217 50.9045 82.4544 50.0828C81.5871 49.2155 80.9024 48.12 80.4003 46.7962C79.8982 45.4268 79.6471 43.7607 79.6471 41.7979V17.7647H86.4942ZM129.155 17.7647V23.5162C129.702 22.6946 130.227 21.9186 130.729 21.1882C131.277 20.4579 131.871 19.8188 132.51 19.2711C133.149 18.7233 133.856 18.2896 134.632 17.9701C135.408 17.6049 136.275 17.4224 137.234 17.4224C138.786 17.4224 139.927 17.8332 140.658 18.6548C141.388 19.4308 141.753 20.3894 141.753 21.5306C141.753 22.2153 141.639 22.7859 141.411 23.2424C141.183 23.6988 140.909 24.064 140.589 24.3379C140.27 24.6118 139.927 24.8172 139.562 24.9541C139.197 25.0454 138.877 25.0911 138.603 25.0911C138.193 25.0911 137.85 24.9998 137.576 24.8172C137.348 24.6346 137.097 24.452 136.823 24.2694C136.595 24.0412 136.321 23.8358 136.002 23.6532C135.682 23.4706 135.271 23.3793 134.769 23.3793C133.719 23.3793 132.715 23.7445 131.756 24.4748C130.798 25.2052 129.931 25.9812 129.155 26.8028V52H122.307V17.7647H129.155ZM145.378 5.02918L152.225 4.07059V20.2981C153.001 19.5221 153.914 18.8831 154.964 18.3809C156.014 17.8788 157.269 17.6278 158.73 17.6278C159.962 17.6278 161.24 17.856 162.564 18.3125C163.888 18.7233 165.12 19.4765 166.261 20.572C167.403 21.6675 168.338 23.1739 169.069 25.0911C169.799 27.0082 170.164 29.4504 170.164 32.4174C170.164 35.0193 169.845 37.5299 169.206 39.9492C168.612 42.3685 167.676 44.5139 166.398 46.3854C165.166 48.2113 163.614 49.672 161.742 50.7675C159.871 51.8631 157.68 52.4108 155.169 52.4108C153.754 52.4108 152.43 52.2054 151.198 51.7946C150.011 51.3381 148.984 50.6306 148.117 49.672C147.249 48.6678 146.565 47.3668 146.063 45.7692C145.56 44.1259 145.309 42.1174 145.309 39.7438L145.378 5.02918ZM164.07 33.9922C164.07 32.212 163.911 30.5459 163.591 28.9939C163.271 27.4419 162.792 26.0953 162.153 24.9541C161.56 23.7673 160.807 22.8544 159.894 22.2153C159.026 21.5306 158.022 21.1882 156.881 21.1882C155.968 21.1882 155.123 21.4165 154.347 21.8729C153.571 22.2838 152.864 22.8315 152.225 23.5162V41.524C152.225 45.6322 153.571 47.6864 156.265 47.6864C157.543 47.6864 158.661 47.3212 159.62 46.5908C160.624 45.8148 161.446 44.7878 162.085 43.5096C162.769 42.2315 163.271 40.7708 163.591 39.1275C163.911 37.4842 164.07 35.7725 164.07 33.9922ZM195.359 26.3235C195.359 29.5188 194.035 32.1892 191.388 34.3346C188.786 36.48 185.157 37.8038 180.501 38.3059C180.684 40.1318 181.003 41.6153 181.46 42.7565C181.962 43.8976 182.555 44.8106 183.24 45.4953C183.925 46.1344 184.701 46.5908 185.568 46.8647C186.481 47.0929 187.417 47.2071 188.375 47.2071C190.566 47.2071 192.62 46.6365 194.538 45.4953C196.455 44.3541 198.007 42.4369 199.194 39.7438H201.385C200.791 41.4327 199.97 43.0532 198.92 44.6052C197.87 46.1115 196.637 47.4581 195.222 48.6449C193.807 49.7861 192.278 50.6991 190.635 51.3838C188.991 52.0685 187.302 52.4108 185.568 52.4108C183.97 52.4108 182.418 52.1369 180.912 51.5892C179.451 51.0414 178.15 50.1513 177.009 48.9188C175.868 47.6407 174.932 45.9974 174.202 43.9889C173.517 41.9805 173.175 39.5155 173.175 36.5941C173.175 34.6769 173.38 32.6 173.791 30.3633C174.247 28.1266 174.978 26.0496 175.982 24.1325C177.032 22.2153 178.378 20.6176 180.022 19.3395C181.711 18.0614 183.788 17.4224 186.253 17.4224C187.394 17.4224 188.489 17.5593 189.539 17.8332C190.635 18.0614 191.616 18.5179 192.483 19.2026C193.351 19.8416 194.035 20.7318 194.538 21.8729C195.085 23.0141 195.359 24.4976 195.359 26.3235ZM180.433 35.6355C183.674 35.1334 186.23 33.9922 188.101 32.212C190.018 30.4318 190.977 28.2407 190.977 25.6388C190.977 23.9042 190.68 22.6718 190.087 21.9414C189.494 21.1654 188.649 20.7774 187.554 20.7774C186.367 20.7774 185.317 21.2339 184.404 22.1468C183.537 23.0598 182.806 24.2466 182.213 25.7073C181.619 27.1224 181.163 28.72 180.843 30.5002C180.57 32.2348 180.433 33.9466 180.433 35.6355ZM224.402 17.7647V41.0447C224.402 41.5012 224.425 42.0718 224.47 42.7565C224.516 43.4412 224.63 44.1259 224.813 44.8106C225.041 45.4496 225.361 46.0202 225.771 46.5224C226.182 46.9788 226.753 47.2071 227.483 47.2071C229.72 47.2071 231.363 44.7193 232.413 39.7438H234.946C234.444 42.6195 233.805 44.9019 233.029 46.5908C232.253 48.2341 231.432 49.4894 230.564 50.3567C229.697 51.224 228.807 51.7718 227.894 52C226.981 52.2739 226.159 52.4108 225.429 52.4108C224.379 52.4108 223.466 52.2282 222.69 51.8631C221.96 51.4979 221.321 51.0186 220.773 50.4252C220.271 49.8318 219.86 49.1471 219.541 48.3711C219.221 47.5951 218.97 46.7734 218.787 45.9061C218.103 47.6864 216.984 49.2155 215.432 50.4936C213.926 51.7718 212.077 52.4108 209.886 52.4108C208.517 52.4108 207.125 52.1369 205.709 51.5892C204.34 51.0414 203.085 50.1513 201.944 48.9188C200.848 47.6407 199.935 46.0202 199.205 44.0574C198.52 42.0489 198.178 39.6068 198.178 36.7311C198.178 34.6313 198.406 32.4402 198.862 30.1579C199.365 27.8755 200.141 25.7986 201.19 23.9271C202.24 22.0555 203.587 20.5035 205.23 19.2711C206.873 18.0386 208.859 17.4224 211.187 17.4224C211.735 17.4224 212.305 17.4908 212.899 17.6278C213.538 17.7191 214.131 17.9017 214.679 18.1755C215.273 18.4494 215.82 18.8374 216.322 19.3395C216.825 19.796 217.235 20.3666 217.555 21.0513V17.7647H224.402ZM211.598 47.2071C212.283 47.2071 212.967 47.0245 213.652 46.6593C214.382 46.2485 215.021 45.7235 215.569 45.0845C216.163 44.3998 216.642 43.6009 217.007 42.688C217.372 41.7751 217.555 40.7936 217.555 39.7438V24.1325C217.235 23.4021 216.733 22.7402 216.049 22.1468C215.409 21.5078 214.565 21.1882 213.515 21.1882C212.054 21.1882 210.799 21.6904 209.749 22.6946C208.699 23.6532 207.855 24.8856 207.216 26.392C206.577 27.8527 206.097 29.4732 205.778 31.2534C205.504 32.988 205.367 34.6541 205.367 36.2518C205.367 40.1774 205.892 42.9847 206.942 44.6736C208.037 46.3626 209.589 47.2071 211.598 47.2071ZM239.216 17.7647V23.5162C239.763 22.6946 240.288 21.9186 240.79 21.1882C241.338 20.4579 241.932 19.8188 242.571 19.2711C243.21 18.7233 243.917 18.2896 244.693 17.9701C245.469 17.6049 246.337 17.4224 247.295 17.4224C248.847 17.4224 249.988 17.8332 250.719 18.6548C251.449 19.4308 251.814 20.3894 251.814 21.5306C251.814 22.2153 251.7 22.7859 251.472 23.2424C251.244 23.6988 250.97 24.064 250.65 24.3379C250.331 24.6118 249.988 24.8172 249.623 24.9541C249.258 25.0454 248.938 25.0911 248.665 25.0911C248.254 25.0911 247.911 24.9998 247.638 24.8172C247.409 24.6346 247.158 24.452 246.884 24.2694C246.656 24.0412 246.382 23.8358 246.063 23.6532C245.743 23.4706 245.332 23.3793 244.83 23.3793C243.78 23.3793 242.776 23.7445 241.818 24.4748C240.859 25.2052 239.992 25.9812 239.216 26.8028V52H232.369V17.7647H239.216Z" fill="black"/>
</svg>
