<svg width="266" height="225" viewBox="0 0 266 225" fill="none" xmlns="http://www.w3.org/2000/svg">
<circle cx="52.5" cy="52.5" r="45.5" fill="white" stroke="black" stroke-width="12"/>
<circle cx="213.5" cy="52.5" r="45.5" fill="white" stroke="black" stroke-width="12"/>
<path d="M133 14C200.148 14 253 60.7014 253 116.5C253 172.299 200.148 219 133 219C65.8525 219 13 172.299 13 116.5C13 60.7014 65.8525 14 133 14Z" fill="white" stroke="black" stroke-width="12"/>
<path d="M68.0107 109.049C68.0107 105.761 69.0721 103.076 71.1949 100.995C73.3177 98.9137 76.1065 97.8731 79.5612 97.8731C82.9743 97.8731 85.7423 98.8928 87.865 100.932C89.9878 102.93 91.0908 105.532 91.1741 108.737V111.234C91.1741 114.606 90.1127 117.29 87.9899 119.288C85.8671 121.286 83.0784 122.285 79.6236 122.285C76.1273 122.285 73.3177 121.265 71.1949 119.226C69.0721 117.186 68.0107 114.481 68.0107 111.109V109.049ZM140.122 135.925C143.446 140.443 146.43 143.597 149.072 145.387C151.8 147.092 153.889 147.944 155.338 147.944C156.872 147.944 158.236 147.817 159.429 147.561C160.623 147.305 161.731 147.007 162.754 146.666V155.616C161.816 156.128 160.538 156.511 158.918 156.767C157.384 157.108 155.849 157.279 154.315 157.279C152.525 157.279 150.564 156.895 148.433 156.128C146.302 155.446 143.958 154.082 141.4 152.036C138.843 149.905 135.945 146.794 132.705 142.702C128.102 148.669 124.01 152.59 120.43 154.466C116.935 156.341 113.738 157.279 110.84 157.279C109.306 157.279 107.729 157.108 106.109 156.767C104.575 156.511 103.296 156.128 102.273 155.616V146.666C102.784 146.836 103.765 147.092 105.214 147.433C106.663 147.774 107.984 147.944 109.178 147.944C111.224 147.944 113.525 147.092 116.083 145.387C118.64 143.597 121.624 140.443 125.033 135.925C120.601 131.236 116.978 126.548 114.165 121.86C111.437 117.171 110.073 112.483 110.073 107.794C110.073 103.788 110.968 100.165 112.758 96.9256C114.633 93.6863 117.276 91.1289 120.686 89.2536C124.096 87.3782 128.102 86.4405 132.705 86.4405C137.309 86.4405 141.272 87.3782 144.597 89.2536C148.007 91.1289 150.607 93.6863 152.397 96.9256C154.272 100.165 155.21 103.788 155.21 107.794C155.21 111.119 154.485 114.401 153.036 117.64C151.587 120.879 149.712 124.033 147.41 127.102C145.108 130.171 142.679 133.112 140.122 135.925ZM173.9 109.049C173.9 105.761 174.962 103.076 177.085 100.995C179.207 98.9137 181.996 97.8731 185.451 97.8731C188.864 97.8731 191.632 98.8928 193.755 100.932C195.877 102.93 196.98 105.532 197.064 108.737V111.234C197.064 114.606 196.002 117.29 193.88 119.288C191.757 121.286 188.968 122.285 185.513 122.285C182.017 122.285 179.207 121.265 177.085 119.226C174.962 117.186 173.9 114.481 173.9 111.109V109.049Z" fill="black"/>
</svg>
